{
    "asset" : {
        "generator" : "Khronos glTF Blender I/O v3.2.43",
        "version" : "2.0"
    },
    "scene" : 0,
    "scenes" : [
        {
            "name" : "Scene",
            "nodes" : [
                0
            ]
        }
    ],
    "nodes" : [
        {
            "mesh" : 0,
            "name" : "Alpha_Surface",
            "rotation" : [
                0.7071068286895752,
                0,
                0,
                0.7071067094802856
            ],
            "scale" : [
                0.009999999776482582,
                0.009999999776482582,
                0.009999999776482582
            ]
        }
    ],
    "animations" : [
        {
            "channels" : [
                {
                    "sampler" : 0,
                    "target" : {
                        "node" : 0,
                        "path" : "translation"
                    }
                },
                {
                    "sampler" : 1,
                    "target" : {
                        "node" : 0,
                        "path" : "rotation"
                    }
                },
                {
                    "sampler" : 2,
                    "target" : {
                        "node" : 0,
                        "path" : "scale"
                    }
                }
            ],
            "name" : "Alpha_Surface",
            "samplers" : [
                {
                    "input" : 4,
                    "interpolation" : "LINEAR",
                    "output" : 5
                },
                {
                    "input" : 4,
                    "interpolation" : "LINEAR",
                    "output" : 6
                },
                {
                    "input" : 4,
                    "interpolation" : "LINEAR",
                    "output" : 7
                }
            ]
        }
    ],
    "materials" : [
        {
            "doubleSided" : true,
            "name" : "Alpha_Body_MAT",
            "pbrMetallicRoughness" : {
                "baseColorFactor" : [
                    0.09657000750303268,
                    0.42161980271339417,
                    0.5220000147819519,
                    1
                ],
                "metallicFactor" : 0,
                "roughnessFactor" : 0.8082915544509888
            }
        }
    ],
    "meshes" : [
        {
            "name" : "Alpha_Surface",
            "primitives" : [
                {
                    "attributes" : {
                        "POSITION" : 0,
                        "NORMAL" : 1,
                        "TEXCOORD_0" : 2
                    },
                    "indices" : 3,
                    "material" : 0
                }
            ]
        }
    ],
    "accessors" : [
        {
            "bufferView" : 0,
            "componentType" : 5126,
            "count" : 22961,
            "max" : [
                97.34236907958984,
                20.622854232788086,
                0.13015511631965637
            ],
            "min" : [
                -97.34261322021484,
                -15.80409049987793,
                -180.3433380126953
            ],
            "type" : "VEC3"
        },
        {
            "bufferView" : 1,
            "componentType" : 5126,
            "count" : 22961,
            "type" : "VEC3"
        },
        {
            "bufferView" : 2,
            "componentType" : 5126,
            "count" : 22961,
            "type" : "VEC2"
        },
        {
            "bufferView" : 3,
            "componentType" : 5123,
            "count" : 103440,
            "type" : "SCALAR"
        },
        {
            "bufferView" : 4,
            "componentType" : 5126,
            "count" : 2,
            "max" : [
                0.06666666666666667
            ],
            "min" : [
                0.03333333333333333
            ],
            "type" : "SCALAR"
        },
        {
            "bufferView" : 5,
            "componentType" : 5126,
            "count" : 2,
            "type" : "VEC3"
        },
        {
            "bufferView" : 6,
            "componentType" : 5126,
            "count" : 2,
            "type" : "VEC4"
        },
        {
            "bufferView" : 7,
            "componentType" : 5126,
            "count" : 2,
            "type" : "VEC3"
        }
    ],
    "bufferViews" : [
        {
            "buffer" : 0,
            "byteLength" : 275532,
            "byteOffset" : 0
        },
        {
            "buffer" : 0,
            "byteLength" : 275532,
            "byteOffset" : 275532
        },
        {
            "buffer" : 0,
            "byteLength" : 183688,
            "byteOffset" : 551064
        },
        {
            "buffer" : 0,
            "byteLength" : 206880,
            "byteOffset" : 734752
        },
        {
            "buffer" : 0,
            "byteLength" : 8,
            "byteOffset" : 941632
        },
        {
            "buffer" : 0,
            "byteLength" : 24,
            "byteOffset" : 941640
        },
        {
            "buffer" : 0,
            "byteLength" : 32,
            "byteOffset" : 941664
        },
        {
            "buffer" : 0,
            "byteLength" : 24,
            "byteOffset" : 941696
        }
    ],
    "buffers" : [
        {
            "byteLength" : 941720,
            "uri" : "data:application/octet-stream;base64,"
        }
    ]
}
